<svg width="401" height="79" viewBox="0 0 401 79" fill="none" xmlns="http://www.w3.org/2000/svg">
<g clip-path="url(#clip0_15_38)">
<path d="M79.6882 46.6927C80.897 44.9488 80.957 42.4527 79.7781 40.6142C78.6143 38.7458 76.4064 37.6995 74.2386 37.6945C72.0507 37.6496 69.8879 38.6959 68.5192 40.4049C67.1806 42.1288 66.5712 44.341 66.746 46.4884C66.9158 48.6358 67.8899 50.7134 69.4583 52.2032C71.0417 53.6879 73.0897 54.5399 75.1877 54.8538C76.2416 55.0033 77.3156 54.9684 78.3645 54.8239C79.4185 54.6694 80.4325 54.3306 81.3865 53.8872C82.3456 53.4338 83.2097 52.816 83.999 52.1235C84.7782 51.416 85.4275 50.5839 85.987 49.702C86.0319 49.6323 86.012 49.5376 85.942 49.4928C85.8721 49.4479 85.7822 49.4678 85.7372 49.5326L85.7322 49.5376C85.1528 50.3746 84.5035 51.1569 83.7292 51.8096C82.945 52.4473 82.1008 53.0053 81.1717 53.4039C80.2427 53.7876 79.2786 54.0815 78.2796 54.2111C77.2856 54.3257 76.2766 54.3356 75.2876 54.1762C73.3245 53.8523 71.4264 52.9804 70.0028 51.6302C68.5842 50.265 67.71 48.3667 67.5652 46.4136C67.4103 44.4655 67.9997 42.4527 69.1886 40.9131C70.3774 39.3935 72.2855 38.4319 74.2386 38.4518C76.1617 38.4518 78.1947 39.2839 79.2786 40.9231C79.8231 41.7302 80.1378 42.6918 80.1777 43.6783C80.2227 44.6648 79.9579 45.6613 79.4684 46.5382C79.4335 46.603 79.4534 46.6827 79.5184 46.7176C79.5683 46.7674 79.6482 46.7475 79.6882 46.6927Z" fill="#D4B0A5"/>
<path d="M73.859 54.2161C73.849 54.1662 73.794 54.0516 73.7041 54.0068C73.6042 53.962 73.6292 53.9769 73.5893 53.962L73.4444 53.9072L73.1597 53.7926C72.9699 53.7178 72.78 53.6331 72.5952 53.5534C72.2206 53.384 71.851 53.2096 71.4913 53.0103C70.762 52.6317 70.0727 52.1882 69.3984 51.7249C68.0647 50.7782 66.8659 49.6522 65.9068 48.3468C64.9578 47.0414 64.2285 45.5766 63.8489 44.0072C63.4592 42.4278 63.3094 40.7985 63.2145 39.1493C63.0896 37.5052 63.0397 35.8012 62.4602 34.152C62.1705 33.3349 61.7359 32.5577 61.1715 31.895C60.6121 31.2274 59.9327 30.6793 59.2134 30.2159C57.7599 29.3042 56.1764 28.7013 54.568 28.223C52.9596 27.7546 51.3212 27.4158 49.6828 27.1219H49.6778L49.6279 27.4956C50.3722 27.6699 51.0515 28.218 51.551 28.8308C52.0605 29.4636 52.4251 30.201 52.7099 30.9733C53.2793 32.5178 53.5041 34.1969 53.564 35.861C53.6239 36.703 53.584 37.5251 53.619 38.387C53.6589 39.259 53.6289 40.1359 53.8088 41.0028C53.9986 42.7516 54.613 44.4556 55.4571 46.0101C56.2863 47.5895 57.5501 48.8999 58.9287 49.986C59.2884 50.2401 59.618 50.5441 60.0027 50.7583L61.1315 51.4359C61.9208 51.8096 62.695 52.2231 63.5242 52.4971C65.1476 53.1299 66.8359 53.5434 68.5342 53.8374L69.813 54.0367L71.0967 54.1762L71.7361 54.246C71.9758 54.2609 72.2256 54.2759 72.4753 54.2759C72.9898 54.2759 73.4444 54.2111 73.859 54.2161ZM73.5043 54.1513C73.0648 54.0766 72.6702 53.9371 72.3305 53.8524C72.1557 53.8125 71.9808 53.7876 71.796 53.7627L71.1666 53.663L69.9129 53.4587L68.6691 53.1947C67.0207 52.821 65.3823 52.3825 63.8439 51.7149C62.3004 51.0722 60.8218 50.27 59.5481 49.2187L59.0586 48.8401L58.619 48.4066L58.1795 47.9731C58.0296 47.8336 57.8897 47.6842 57.7699 47.5197L57.0056 46.5581C56.7858 46.2144 56.586 45.8556 56.3712 45.5118C56.1415 45.173 56.0016 44.7844 55.8368 44.4107C55.6819 44.0321 55.4871 43.6684 55.3972 43.2648L55.0525 42.084C54.9576 41.6854 54.9127 41.2718 54.8427 40.8683C54.6679 40.0611 54.6979 39.2241 54.633 38.397C54.583 37.56 54.603 36.6731 54.5231 35.8161C54.3832 34.0922 54.0835 32.3484 53.3992 30.7142C53.0595 29.8971 52.59 29.1248 51.9856 28.4671C51.3712 27.8194 50.6119 27.2614 49.6529 27.1368C49.548 27.1219 49.4531 27.1966 49.4431 27.3013C49.4281 27.4009 49.503 27.4956 49.6029 27.5105H49.6079C51.2263 27.8593 52.8347 28.2628 54.3982 28.776C55.9616 29.2793 57.4951 29.9021 58.8438 30.7889C59.5081 31.2423 60.1225 31.7605 60.627 32.3633C61.1315 32.9662 61.5162 33.6588 61.7759 34.4061C62.3004 35.9058 62.3453 37.565 62.4602 39.2141C62.5701 40.8683 62.735 42.5523 63.1545 44.1965C63.5741 45.8506 64.3434 47.4151 65.3823 48.7554C66.4163 50.1056 67.6951 51.2466 69.0887 52.1882C69.798 52.6416 70.5223 53.0701 71.2865 53.4288C71.6612 53.6182 72.0508 53.7826 72.4354 53.942C72.6302 54.0168 72.825 54.0965 73.0248 54.1662L73.3245 54.2709L73.4744 54.3207C73.4844 54.3207 73.5593 54.3556 73.5093 54.3257C73.4694 54.2858 73.4644 54.1812 73.5043 54.1513Z" fill="#D4B0A5"/>
<path d="M63.9138 51.8146C62.725 51.401 61.5311 50.7732 60.4422 50.0558C59.3383 49.3433 58.3143 48.5212 57.3553 47.6294C55.4721 45.8058 53.8437 43.7082 52.6049 41.3864C51.9806 40.2355 51.4461 39.0348 51.0015 37.7941C50.557 36.5485 50.1873 35.2731 49.8077 33.9826C49.4231 32.6922 49.0285 31.3818 48.479 30.1063C47.9296 28.8358 47.2103 27.5902 46.2312 26.5738C45.2572 25.5574 44.1233 24.7004 42.8845 24.0727C41.6707 23.3901 40.2421 22.9815 38.8185 22.9965C37.385 22.9965 35.9814 23.4698 34.8025 24.2471C33.6287 25.0393 32.6796 26.1752 32.1701 27.5055C31.6506 28.8259 31.6506 30.3903 32.315 31.6758C32.6347 32.3185 33.0992 32.8815 33.6387 33.3349C34.1731 33.7783 34.7725 34.2018 35.4719 34.4011C36.8505 34.8545 38.4639 34.4809 39.4679 33.4196C39.9674 32.9014 40.3071 32.1541 40.2122 31.4017C40.1273 30.6394 39.6377 30.0266 39.0983 29.5732C39.0034 29.4935 38.8585 29.5084 38.7786 29.6031C38.6987 29.6978 38.7137 29.8373 38.8036 29.917L38.8136 29.927C39.2931 30.3405 39.6777 30.8636 39.7326 31.4566C39.7976 32.0445 39.5279 32.6374 39.0983 33.0758C38.2291 33.9677 36.8155 34.2816 35.6367 33.868C35.0373 33.6936 34.5128 33.31 34.0233 32.8965C33.5388 32.4779 33.1392 31.9697 32.8694 31.4067C32.31 30.2757 32.325 28.9255 32.7995 27.7546C33.269 26.5788 34.1382 25.5624 35.2071 24.8649C36.2761 24.1723 37.5448 23.7887 38.8185 23.8136C40.0873 23.8285 41.3411 24.2072 42.45 24.8699C43.6038 25.4877 44.6228 26.3048 45.492 27.2464C47.2402 29.1547 47.9795 31.7356 48.6888 34.3065C49.0335 35.6019 49.4181 36.9123 49.8577 38.2077C50.3122 39.5031 50.8617 40.7686 51.511 41.9893C52.8247 44.4058 54.538 46.613 56.566 48.4913C58.644 50.3149 60.9717 51.8644 63.704 52.6466C63.9288 52.7114 64.1635 52.5818 64.2285 52.3576C64.2934 52.1384 64.1735 51.9142 63.9587 51.8395L63.9138 51.8146Z" fill="#D4B0A5"/>
<path d="M87.5105 43.9374C86.986 46.9119 85.6473 49.7867 83.7042 52.0836C81.7562 54.3904 79.1687 56.1094 76.3115 57.061C74.8829 57.5393 73.4044 57.8831 71.8959 58.0425C71.5213 58.1023 71.1416 58.1272 70.767 58.1521C70.3874 58.177 70.0127 58.2169 69.6331 58.2319C68.8739 58.2368 68.1146 58.2817 67.3504 58.2368C64.3034 58.1372 61.2614 57.7037 58.3543 56.8169C55.4421 55.9499 52.6699 54.6495 50.0475 53.095C47.43 51.5206 44.9675 49.6771 42.5199 47.7788C40.0673 45.8905 37.6097 43.9324 34.8225 42.3929C33.4288 41.6256 31.9503 40.9779 30.3918 40.5544C30.0072 40.4398 29.6026 40.37 29.213 40.2803C28.8184 40.2006 28.4138 40.1558 28.0142 40.096C27.6146 40.0561 27.215 40.0362 26.8154 40.0063L25.6066 39.9864C22.3648 40.0512 19.1679 41.2569 16.7004 43.3395C14.2278 45.4172 12.5395 48.4116 12.1199 51.6053C11.6354 54.794 12.6643 58.2069 14.8871 60.5487C17.075 62.9153 20.3468 64.2605 23.5736 63.9516C23.9782 63.9317 24.3728 63.8221 24.7674 63.7523C25.152 63.6328 25.5466 63.5381 25.9163 63.3737C26.6705 63.0847 27.3698 62.6662 28.0042 62.1779C29.2829 61.1964 30.262 59.8461 30.8164 58.3415C31.0912 57.5891 31.251 56.7969 31.3209 55.9997C31.3759 55.1976 31.296 54.3805 31.0762 53.6082C30.6466 52.0537 29.6426 50.6686 28.3039 49.7768C26.9702 48.8799 25.3318 48.4315 23.7184 48.6408C22.115 48.87 20.6415 49.8365 19.7973 51.2067C19.3777 51.8893 19.108 52.6665 19.0181 53.4637C18.9082 54.2609 19.0281 55.093 19.3577 55.8303C20.0021 57.3151 21.5156 58.3664 23.129 58.4561C23.2139 58.461 23.2889 58.3963 23.2938 58.3166C23.2988 58.2319 23.2339 58.1621 23.149 58.1521C21.6455 58.0525 20.2618 57.061 19.6824 55.6859C19.3877 55.0033 19.2878 54.246 19.3927 53.5086C19.4876 52.7662 19.7424 52.0487 20.142 51.4209C20.9412 50.1604 22.3098 49.2835 23.7834 49.0892C25.2569 48.9098 26.8054 49.3433 28.0242 50.1903C29.258 51.0323 30.1721 52.3228 30.5517 53.7577C30.7465 54.4751 30.8114 55.2225 30.7565 55.9599C30.6816 56.7023 30.5317 57.4397 30.267 58.1372C29.7325 59.5273 28.8134 60.7729 27.6196 61.6697C27.0252 62.1181 26.3758 62.4968 25.6765 62.7559C25.3368 62.9103 24.9722 62.985 24.6125 63.0947C24.2479 63.1544 23.8833 63.2491 23.5136 63.2591C22.0401 63.3787 20.5066 63.1196 19.133 62.5466C17.7543 61.9736 16.5105 61.0917 15.5115 59.9906C13.4785 57.7834 12.5894 54.6645 13.0739 51.7348C13.5035 48.7902 15.1019 46.0599 17.4047 44.1716C19.7074 42.2833 22.6595 41.222 25.6265 41.1971L26.7454 41.227C27.1201 41.2619 27.4947 41.2818 27.8643 41.3217C28.229 41.3864 28.5986 41.4263 28.9633 41.501C29.3229 41.5907 29.6925 41.6555 30.0472 41.7651C31.4808 42.1736 32.8544 42.7915 34.1731 43.5388C36.8055 45.0385 39.2181 46.9667 41.6657 48.86C44.1133 50.7683 46.6158 52.6616 49.3132 54.2908C52.0105 55.915 54.9077 57.2603 57.9596 58.1272C61.0016 59.0241 64.1635 59.4476 67.3154 59.5223C70.4673 59.607 73.6891 59.2233 76.6862 58.1173C79.6832 57.0311 82.4255 55.1478 84.3886 52.6317C86.3366 50.1156 87.6204 47.1261 87.995 43.9773C88.01 43.8427 87.9151 43.7232 87.7802 43.7082C87.6503 43.6933 87.5355 43.783 87.5105 43.9075V43.9374Z" fill="#D4B0A5"/>
<path d="M82.2007 53.6979C81.906 53.8474 81.6263 53.9022 81.4165 54.0168C81.2167 54.1363 80.912 54.3107 80.6472 54.4552C80.1078 54.7741 79.5333 55.0332 78.9689 55.3022C77.815 55.7905 76.6362 56.2289 75.4174 56.5129C72.9898 57.1208 70.4623 57.335 67.9598 57.1706C62.9647 56.8368 58.0445 55.2325 53.7388 52.7313C51.5909 51.4558 49.6228 49.8864 47.7647 48.1973C45.8965 46.5183 44.1033 44.7346 42.1652 43.0755C40.2371 41.4213 38.1242 39.8967 35.7316 38.8903C33.3489 37.8689 30.7265 37.4404 28.144 37.4852L28.3189 38.412C29.4577 38.0383 30.6915 37.7692 31.9103 37.6098C33.1341 37.4553 34.3779 37.3607 35.6117 37.4304C36.8504 37.4553 38.0692 37.6596 39.2731 37.9237C39.8625 38.103 40.4569 38.2625 41.0313 38.4717L41.8805 38.8355C42.1602 38.96 42.4549 39.0646 42.7147 39.2291L43.5139 39.6874C43.7836 39.8369 44.0483 39.9864 44.2881 40.1857L45.0274 40.7387C45.2771 40.9181 45.5269 41.1024 45.7367 41.3266C46.1762 41.7601 46.6258 42.1687 47.0604 42.6221L48.3541 44.0121C50.0924 45.8457 51.8856 47.6443 53.8237 49.2885C55.7618 50.9277 57.8597 52.4274 60.1974 53.4787C61.3513 54.0317 62.5701 54.4303 63.7939 54.789C65.0276 55.1079 66.2714 55.3919 67.5252 55.5763C68.7789 55.7805 70.0327 55.935 71.3114 56.0247C72.5852 56.0845 73.8639 56.0396 75.1277 55.8951C76.3914 55.7506 77.6452 55.4965 78.869 55.1478C79.4784 54.9634 80.0878 54.7741 80.6772 54.5399C80.9769 54.4303 81.2666 54.3057 81.5613 54.1812C81.7062 54.1164 81.851 54.0516 81.9959 53.9819L82.2107 53.8773L82.3206 53.8225C82.3256 53.8175 82.3855 53.7926 82.3456 53.8075C82.2956 53.8175 82.1907 53.7477 82.2007 53.6979ZM82.4854 53.5185C82.4554 53.4837 82.3206 53.4338 82.2407 53.4737L82.1607 53.5086L82.0558 53.5584L81.8461 53.658L81.4165 53.8474C81.1268 53.9669 80.837 54.0865 80.5423 54.1911C79.9579 54.4104 79.3585 54.5947 78.7541 54.7691C77.5453 55.1029 76.3115 55.3371 75.0677 55.4666C73.824 55.5962 72.5702 55.6261 71.3214 55.5513C70.0827 55.4517 68.8289 55.2823 67.5901 55.068C66.3463 54.8737 65.1275 54.5848 63.9237 54.2559C62.7299 53.8922 61.5461 53.4936 60.4272 52.9406C58.1594 51.8943 56.1264 50.4095 54.2333 48.7753C52.3402 47.1361 50.5869 45.3375 48.8736 43.494L47.6048 42.0989C47.1753 41.6356 46.6957 41.1921 46.2412 40.7337C46.0214 40.4946 45.7617 40.3003 45.5019 40.1109L44.7327 39.523C44.4829 39.3138 44.2032 39.1493 43.9235 38.9899L43.0843 38.5016C42.8096 38.3223 42.5049 38.2127 42.2102 38.0781L41.321 37.6895C40.7166 37.4603 40.0922 37.2859 39.4729 37.0916C38.2141 36.8026 36.9354 36.5735 35.6466 36.5336C34.3579 36.4489 33.0692 36.5336 31.7904 36.6831C30.5067 36.8425 29.2579 37.0916 27.9942 37.4952H27.9892C27.7394 37.5799 27.6096 37.8489 27.6945 38.0981C27.7644 38.2974 27.9542 38.4219 28.159 38.4169H28.169C30.6366 38.3522 33.1091 38.7308 35.3869 39.6775C37.6696 40.6092 39.7226 42.0591 41.6407 43.6634C45.4669 46.9069 48.9385 50.7334 53.4091 53.2844C57.8497 55.8054 62.8298 57.3649 67.9348 57.6589C70.4823 57.8034 73.0547 57.5592 75.5223 56.9165C76.7611 56.6176 77.9599 56.1592 79.1287 55.646C79.7032 55.367 80.2826 55.0979 80.827 54.7691C81.1068 54.5997 81.3665 54.4801 81.6862 54.241C82.0059 54.0068 82.2506 53.7128 82.4854 53.5185Z" fill="#D4B0A5"/>
<path d="M68.0597 48.8251C67.4403 47.5197 67.8199 45.8506 68.9289 44.9538C69.4683 44.4954 70.1626 44.2214 70.8619 44.2762C71.5563 44.3211 72.2256 44.6648 72.6602 45.2079C73.0997 45.746 73.3045 46.4585 73.0997 47.1211C72.9199 47.7788 72.3605 48.3319 71.7011 48.4813C71.0368 48.6358 70.2975 48.292 69.9828 47.6842C69.6332 47.1012 69.8729 46.2492 70.5173 45.9403C70.5672 45.9154 70.5872 45.8606 70.5622 45.8108C70.5373 45.7659 70.4823 45.741 70.4374 45.761H70.4324C69.6831 46.0748 69.3235 47.0763 69.7281 47.8137C70.0877 48.5411 70.9618 48.9696 71.7661 48.7952C72.5653 48.6258 73.2146 47.9931 73.4444 47.2208C73.6991 46.4485 73.4694 45.5617 72.9549 44.9638C72.4504 44.346 71.6811 43.9623 70.8869 43.9175C70.0877 43.8577 69.2985 44.1865 68.7141 44.6947C68.1147 45.198 67.7001 45.9054 67.5452 46.6678C67.3854 47.4301 67.5152 48.2322 67.8499 48.9248C67.8799 48.9846 67.9498 49.0045 68.0048 48.9796C68.0597 48.9497 68.0847 48.8799 68.0597 48.8251Z" fill="#D4B0A5"/>
<path d="M68.3794 51.2416L68.5192 51.391L68.5542 51.4309C68.5792 51.4259 68.5392 51.406 68.5392 51.396L68.4743 51.3163C68.3894 51.2067 68.3094 51.0971 68.2295 50.9875C68.0747 50.7633 67.9248 50.5341 67.785 50.2949C67.5102 49.8216 67.2705 49.3283 67.0657 48.8251C66.6611 47.8137 66.4113 46.7425 66.3514 45.6613C66.2864 44.5801 66.4163 43.499 66.711 42.4676C67.0007 41.4313 67.4853 40.4647 68.0147 39.5131C69.0637 37.6048 70.3824 35.8709 71.5612 33.9776C71.8509 33.4993 72.1307 33.0061 72.3554 32.458C72.5702 31.9149 72.7501 31.3021 72.6751 30.6145C72.6302 30.2757 72.5103 29.9419 72.3355 29.6479C72.1507 29.359 71.9309 29.1098 71.6861 28.9056C71.2166 28.507 70.6272 28.1881 69.9428 28.1084C69.2635 28.0237 68.5742 28.233 68.0497 28.5668C67.5102 28.8956 67.0956 29.3341 66.726 29.7825C65.9967 30.6942 65.4772 31.7007 65.0277 32.7271C64.5881 33.7484 64.2235 34.8296 64.0237 35.9307C63.8089 37.0268 63.699 38.1379 63.664 39.249C63.649 40.3601 63.719 41.4711 63.8838 42.5673C64.0836 43.6584 64.3284 44.7446 64.743 45.7709C65.5272 47.8386 66.771 49.7269 68.3594 51.2466L68.3794 51.2416ZM68.3894 51.2316C66.8609 49.6522 65.707 47.739 65.0127 45.6812C64.6431 44.6599 64.4433 43.5837 64.2884 42.5124C64.1685 41.4363 64.1386 40.3501 64.1985 39.2689C64.3533 37.1066 64.7879 34.9741 65.747 33.0459C66.2115 32.0793 66.751 31.1427 67.4253 30.3604C68.0897 29.5832 68.9688 28.9803 69.808 29.1298C70.2226 29.1995 70.6371 29.4188 71.0068 29.7177C71.3764 30.0017 71.6162 30.3405 71.6861 30.7491C71.756 31.1626 71.6611 31.6459 71.4913 32.1192C71.3215 32.5975 71.0767 33.0758 70.822 33.5442C69.763 35.4225 68.4943 37.256 67.5102 39.244C67.0157 40.2255 66.5512 41.2619 66.2964 42.353C66.0367 43.4392 65.9518 44.5702 66.0667 45.6763C66.1765 46.7823 66.4812 47.8635 66.9358 48.87C67.1606 49.3732 67.4253 49.8615 67.725 50.3198C67.8749 50.549 68.0297 50.7782 68.1996 50.9974C68.2845 51.1071 68.3694 51.2117 68.4593 51.3163L68.5292 51.396C68.5392 51.401 68.5542 51.4409 68.5642 51.416L68.5292 51.3811L68.3844 51.2366L68.3894 51.2316Z" fill="#D4B0A5"/>
<path d="M84.4934 51.8843C82.5054 54.5748 79.9829 56.8617 77.0658 58.466C74.1686 60.0953 70.8969 61.032 67.5901 61.2611C65.9368 61.3807 64.2734 61.3309 62.625 61.1615C60.9766 60.9821 59.3483 60.6384 57.7448 60.1999C56.1414 59.7714 54.583 59.1785 53.0495 58.5458C51.531 57.8781 50.0275 57.1557 48.5839 56.3286C45.6668 54.7243 42.9394 52.8011 40.307 50.7483C37.6447 48.7105 34.8474 46.8023 31.7954 45.3524C28.7634 43.9175 25.4367 42.8562 22.0301 43.0306C21.1859 43.1004 20.3417 43.2249 19.5276 43.4641C18.7183 43.7082 17.9291 44.0321 17.1998 44.4606C15.7563 45.3026 14.4975 46.5133 13.6983 47.9831C14.1179 47.2607 14.6723 46.6229 15.2767 46.0549C15.8861 45.4869 16.5605 44.9937 17.2898 44.6001C18.019 44.2015 18.7983 43.9025 19.5975 43.6933C20.4017 43.484 21.2259 43.3844 22.0501 43.3395C25.3768 43.2349 28.6236 44.326 31.5856 45.7909C34.5527 47.2856 37.325 49.1589 39.9524 51.2067C42.5798 53.2794 45.3271 55.2524 48.2742 56.8866C49.7377 57.7187 51.2662 58.4411 52.8097 59.1088C54.3732 59.7415 55.9566 60.3344 57.59 60.7629C60.8418 61.6448 64.2534 62.0683 67.6301 61.7544C70.9968 61.4604 74.3085 60.454 77.2206 58.7401C80.1228 57.0211 82.6203 54.6595 84.4934 51.8843Z" fill="#D4B0A5"/>
<path d="M49.3582 27.3112C49.3582 27.4557 49.4631 27.5802 49.6129 27.6002C49.9176 27.64 57.1355 28.6664 58.3243 36.6631C59.663 45.6513 60.5471 51.5903 72.5802 54.4403C72.7351 54.4751 72.8949 54.3805 72.9299 54.226C72.9649 54.0716 72.87 53.9121 72.7151 53.8772C61.0616 51.117 60.2025 45.3325 58.8987 36.5784C57.645 28.1433 49.7628 27.0372 49.6878 27.0222C49.528 27.0023 49.3831 27.1119 49.3632 27.2713C49.3582 27.2863 49.3582 27.3012 49.3582 27.3112Z" fill="#D4B0A5"/>
</g>
<path d="M97.2695 67.0078C96.5794 67.0078 95.9349 66.9232 95.3359 66.7539C92.9922 66.0898 91.8203 63.4206 91.8203 58.7461C91.8203 57.0143 92.0026 54.612 92.3672 51.5391C92.9792 45.6406 93.9102 39.599 95.1602 33.4141C92.3477 35.9531 90.2904 38.9609 88.9883 42.4375C88.3242 44.2083 87.8359 46.2656 87.5234 48.6094C87.4844 48.8177 87.3932 48.9805 87.25 49.0977C87.1068 49.2148 86.9375 49.2734 86.7422 49.2734C86.5078 49.2734 86.3255 49.1953 86.1953 49.0391C86.0651 48.8698 86 48.7005 86 48.5312V48.4141C86.599 43.8828 87.9661 40.0482 90.1016 36.9102C91.5469 34.8008 93.4154 32.7891 95.707 30.875C96.5534 27.0859 97.543 23.9349 98.6758 21.4219C99.7044 19.2865 100.85 18.0299 102.113 17.6523C102.842 17.418 103.435 17.3008 103.891 17.3008C104.333 17.3008 104.75 17.3724 105.141 17.5156C106.365 17.9583 106.977 18.8438 106.977 20.1719C106.977 20.849 106.781 21.6367 106.391 22.5352C105.557 24.2799 104.483 25.8034 103.168 27.1055C101.853 28.3945 100.421 29.638 98.8711 30.8359L98.4609 31.168C97.5104 35.3346 96.7161 39.6641 96.0781 44.1562C95.5182 48.1276 95.1797 50.8034 95.0625 52.1836C94.737 54.9961 94.5742 57.0273 94.5742 58.2773C94.5742 60.582 94.9453 62.1966 95.6875 63.1211C96.4688 64.0846 97.5495 64.5664 98.9297 64.5664L99.4766 64.5469C101.117 64.3906 102.973 64.0065 105.043 63.3945C108.78 62.3268 112.022 61.793 114.77 61.793C115.316 61.793 115.857 61.8125 116.391 61.8516C118.318 61.9948 120.03 62.5156 121.527 63.4141C121.762 63.5964 121.879 63.8112 121.879 64.0586C121.879 64.2018 121.84 64.3451 121.762 64.4883C121.592 64.7227 121.378 64.8398 121.117 64.8398C120.987 64.8398 120.85 64.8008 120.707 64.7227C119.392 63.9284 118.181 63.4987 117.074 63.4336C115.967 63.3685 115.173 63.3359 114.691 63.3359C111.723 63.3359 108.298 64.0065 104.418 65.3477C101.137 66.4544 98.7539 67.0078 97.2695 67.0078ZM99.0664 28.707C100.303 27.7174 101.436 26.6823 102.465 25.6016C103.507 24.5078 104.353 23.2708 105.004 21.8906C105.29 21.2266 105.434 20.6602 105.434 20.1914C105.434 19.4362 105.173 19.0586 104.652 19.0586C103.975 19.0586 103.122 19.7357 102.094 21.0898C101.065 22.431 100.056 24.9701 99.0664 28.707ZM127.914 64.1758C126.573 64.1758 125.388 63.7331 124.359 62.8477C123.37 62.0143 122.732 60.7253 122.445 58.9805C122.38 58.5508 122.348 58.1146 122.348 57.6719C122.348 55.849 122.81 54.026 123.734 52.2031C124.906 49.9896 126.078 48.6289 127.25 48.1211C128.422 47.6003 129.353 47.3398 130.043 47.3398C130.876 47.3398 131.684 47.5742 132.465 48.043C133.884 48.8893 134.887 50.5365 135.473 52.9844C135.629 53.7266 135.707 54.4883 135.707 55.2695C135.707 56.4284 135.544 57.5156 135.219 58.5312C135.427 58.5573 135.642 58.5703 135.863 58.5703C138.767 58.5703 142.035 56.5586 145.668 52.5352C145.824 52.3659 146.026 52.2812 146.273 52.2812C146.443 52.2812 146.605 52.3529 146.762 52.4961C146.918 52.6263 146.996 52.8086 146.996 53.043C146.996 53.2253 146.938 53.388 146.82 53.5312C142.94 57.9193 139.281 60.1133 135.844 60.1133C135.427 60.1133 135.023 60.0742 134.633 59.9961C133.865 61.4023 132.849 62.4635 131.586 63.1797C130.388 63.8438 129.164 64.1758 127.914 64.1758ZM133.754 58.082C134.04 57.1966 134.184 56.2591 134.184 55.2695C134.184 54.6055 134.112 53.9544 133.969 53.3164C133.708 52.1445 133.305 51.2786 132.758 50.7188C132.224 50.1458 131.618 49.8464 130.941 49.8203C130.876 50.4453 130.844 51.0378 130.844 51.5977C130.844 53.3945 131.15 54.8724 131.762 56.0312C132.27 56.9818 132.934 57.6654 133.754 58.082ZM129.164 61.9297C130.831 61.9297 132.159 61.1159 133.148 59.4883C131.99 58.9284 131.078 58.0104 130.414 56.7344C129.685 55.3542 129.32 53.6289 129.32 51.5586C129.32 51.1029 129.34 50.6276 129.379 50.1328C128.116 50.7057 127.055 51.806 126.195 53.4336C125.453 54.8398 125.082 56.2396 125.082 57.6328C125.082 57.9583 125.108 58.2773 125.16 58.5898C125.395 59.8268 125.922 60.6927 126.742 61.1875C127.576 61.6823 128.383 61.9297 129.164 61.9297ZM149.418 63.1992C149.027 63.1992 148.669 63.0951 148.344 62.8867C147.549 62.3659 146.951 61.5521 146.547 60.4453C146.156 59.3385 145.902 58.2839 145.785 57.2812C145.512 55.25 145.375 52.4961 145.375 49.0195V48.5508C145.388 48.1602 145.525 47.8411 145.785 47.5938C146.046 47.3333 146.371 47.1966 146.762 47.1836C147.152 47.1966 147.471 47.3333 147.719 47.5938C147.979 47.8542 148.116 48.1797 148.129 48.5703V49.4883C148.129 52.6133 148.253 55.0938 148.5 56.9297C148.513 56.9818 148.52 57.0469 148.52 57.125C148.572 57.5807 148.669 58.1862 148.812 58.9414C148.956 59.6966 149.145 60.2891 149.379 60.7188C149.613 61.1484 149.867 61.3633 150.141 61.3633C150.284 61.3633 150.44 61.3177 150.609 61.2266C151.534 60.6016 152.536 59.5339 153.617 58.0234C154.711 56.5 155.818 54.8659 156.938 53.1211C157.497 52.2357 157.966 51.513 158.344 50.9531C158.474 50.7188 158.689 50.6016 158.988 50.6016C159.327 50.6016 159.561 50.7708 159.691 51.1094C159.978 51.8776 160.603 52.6914 161.566 53.5508C162.335 54.2148 163.22 54.7031 164.223 55.0156C164.665 55.1458 165.115 55.2109 165.57 55.2109C166.156 55.2109 166.755 55.1068 167.367 54.8984C168.409 54.5469 169.464 53.7591 170.531 52.5352C170.688 52.3659 170.889 52.2812 171.137 52.2812C171.306 52.2812 171.469 52.3529 171.625 52.4961C171.794 52.6393 171.879 52.8151 171.879 53.0234C171.879 53.2057 171.82 53.375 171.703 53.5312C170.44 54.9766 169.171 55.9141 167.895 56.3438C167.1 56.6042 166.332 56.7344 165.59 56.7344C164.978 56.7344 164.392 56.6497 163.832 56.4805C162.582 56.1159 161.501 55.5299 160.59 54.7227C159.9 54.1367 159.34 53.5182 158.91 52.8672L158.207 53.9414C157.061 55.7643 155.909 57.4766 154.75 59.0781C153.591 60.6667 152.484 61.819 151.43 62.5352C150.674 62.9779 150.004 63.1992 149.418 63.1992ZM171.176 56.9102C175.733 55.2044 178.663 53.5768 179.965 52.0273C180.368 51.5195 180.57 51.1159 180.57 50.8164C180.57 50.3216 180.219 50.0742 179.516 50.0742C178.904 50.0742 178.174 50.2305 177.328 50.543C176.417 50.8945 175.525 51.3568 174.652 51.9297C173.793 52.4896 173.135 53.1081 172.68 53.7852C171.938 54.931 171.436 55.9727 171.176 56.9102ZM174.574 64.332C173.142 64.332 171.872 64 170.766 63.3359C169.802 62.7109 169.092 61.8841 168.637 60.8555C168.337 60.1523 168.188 59.3776 168.188 58.5312C168.188 56.6432 168.917 54.5599 170.375 52.2812C171.911 50.0417 173.767 48.6875 175.941 48.2188C176.736 48.0495 177.484 47.9648 178.188 47.9648C180.792 47.9648 182.094 48.8958 182.094 50.7578C182.094 53.3099 178.37 55.9271 170.922 58.6094C170.961 59.6771 171.41 60.4909 172.27 61.0508C173.454 61.793 174.424 62.1836 175.18 62.2227C175.948 62.2617 176.423 62.2812 176.605 62.2812C178.78 62.2812 181.163 61.6107 183.754 60.2695C186.983 58.668 190.212 56.0898 193.441 52.5352C193.585 52.3659 193.715 52.2812 193.832 52.2812H194.027C194.21 52.2812 194.379 52.3529 194.535 52.4961C194.691 52.6263 194.776 52.7891 194.789 52.9844C194.789 53.1927 194.724 53.3815 194.594 53.5508C191.221 57.2617 187.836 59.9505 184.438 61.6172C183.305 62.2161 181.905 62.7891 180.238 63.3359C178.572 63.8828 177.257 64.1823 176.293 64.2344C175.342 64.2995 174.77 64.332 174.574 64.332ZM218.441 67.0078C217.751 67.0078 217.107 66.9232 216.508 66.7539C214.164 66.0898 212.992 63.4206 212.992 58.7461C212.992 57.0143 213.174 54.612 213.539 51.5391C214.151 45.6406 215.082 39.599 216.332 33.4141C213.52 35.9531 211.462 38.9609 210.16 42.4375C209.496 44.2083 209.008 46.2656 208.695 48.6094C208.656 48.8177 208.565 48.9805 208.422 49.0977C208.279 49.2148 208.109 49.2734 207.914 49.2734C207.68 49.2734 207.497 49.1953 207.367 49.0391C207.237 48.8698 207.172 48.7005 207.172 48.5312V48.4141C207.771 43.8828 209.138 40.0482 211.273 36.9102C212.719 34.8008 214.587 32.7891 216.879 30.875C217.725 27.0859 218.715 23.9349 219.848 21.4219C220.876 19.2865 222.022 18.0299 223.285 17.6523C224.014 17.418 224.607 17.3008 225.062 17.3008C225.505 17.3008 225.922 17.3724 226.312 17.5156C227.536 17.9583 228.148 18.8438 228.148 20.1719C228.148 20.849 227.953 21.6367 227.562 22.5352C226.729 24.2799 225.655 25.8034 224.34 27.1055C223.025 28.3945 221.592 29.638 220.043 30.8359L219.633 31.168C218.682 35.3346 217.888 39.6641 217.25 44.1562C216.69 48.1276 216.352 50.8034 216.234 52.1836C215.909 54.9961 215.746 57.0273 215.746 58.2773C215.746 60.582 216.117 62.1966 216.859 63.1211C217.641 64.0846 218.721 64.5664 220.102 64.5664L220.648 64.5469C222.289 64.3906 224.145 64.0065 226.215 63.3945C229.952 62.3268 233.194 61.793 235.941 61.793C236.488 61.793 237.029 61.8125 237.562 61.8516C239.49 61.9948 241.202 62.5156 242.699 63.4141C242.934 63.5964 243.051 63.8112 243.051 64.0586C243.051 64.2018 243.012 64.3451 242.934 64.4883C242.764 64.7227 242.549 64.8398 242.289 64.8398C242.159 64.8398 242.022 64.8008 241.879 64.7227C240.564 63.9284 239.353 63.4987 238.246 63.4336C237.139 63.3685 236.345 63.3359 235.863 63.3359C232.895 63.3359 229.47 64.0065 225.59 65.3477C222.309 66.4544 219.926 67.0078 218.441 67.0078ZM220.238 28.707C221.475 27.7174 222.608 26.6823 223.637 25.6016C224.678 24.5078 225.525 23.2708 226.176 21.8906C226.462 21.2266 226.605 20.6602 226.605 20.1914C226.605 19.4362 226.345 19.0586 225.824 19.0586C225.147 19.0586 224.294 19.7357 223.266 21.0898C222.237 22.431 221.228 24.9701 220.238 28.707ZM249.086 64.1758C247.745 64.1758 246.56 63.7331 245.531 62.8477C244.542 62.0143 243.904 60.7253 243.617 58.9805C243.552 58.5508 243.52 58.1146 243.52 57.6719C243.52 55.849 243.982 54.026 244.906 52.2031C246.078 49.9896 247.25 48.6289 248.422 48.1211C249.594 47.6003 250.525 47.3398 251.215 47.3398C252.048 47.3398 252.855 47.5742 253.637 48.043C255.056 48.8893 256.059 50.5365 256.645 52.9844C256.801 53.7266 256.879 54.4883 256.879 55.2695C256.879 56.4284 256.716 57.5156 256.391 58.5312C256.599 58.5573 256.814 58.5703 257.035 58.5703C259.939 58.5703 263.207 56.5586 266.84 52.5352C266.996 52.3659 267.198 52.2812 267.445 52.2812C267.615 52.2812 267.777 52.3529 267.934 52.4961C268.09 52.6263 268.168 52.8086 268.168 53.043C268.168 53.2253 268.109 53.388 267.992 53.5312C264.112 57.9193 260.453 60.1133 257.016 60.1133C256.599 60.1133 256.195 60.0742 255.805 59.9961C255.036 61.4023 254.021 62.4635 252.758 63.1797C251.56 63.8438 250.336 64.1758 249.086 64.1758ZM254.926 58.082C255.212 57.1966 255.355 56.2591 255.355 55.2695C255.355 54.6055 255.284 53.9544 255.141 53.3164C254.88 52.1445 254.477 51.2786 253.93 50.7188C253.396 50.1458 252.79 49.8464 252.113 49.8203C252.048 50.4453 252.016 51.0378 252.016 51.5977C252.016 53.3945 252.322 54.8724 252.934 56.0312C253.441 56.9818 254.105 57.6654 254.926 58.082ZM250.336 61.9297C252.003 61.9297 253.331 61.1159 254.32 59.4883C253.161 58.9284 252.25 58.0104 251.586 56.7344C250.857 55.3542 250.492 53.6289 250.492 51.5586C250.492 51.1029 250.512 50.6276 250.551 50.1328C249.288 50.7057 248.227 51.806 247.367 53.4336C246.625 54.8398 246.254 56.2396 246.254 57.6328C246.254 57.9583 246.28 58.2773 246.332 58.5898C246.566 59.8268 247.094 60.6927 247.914 61.1875C248.747 61.6823 249.555 61.9297 250.336 61.9297ZM270.59 63.1992C270.199 63.1992 269.841 63.0951 269.516 62.8867C268.721 62.3659 268.122 61.5521 267.719 60.4453C267.328 59.3385 267.074 58.2839 266.957 57.2812C266.684 55.25 266.547 52.4961 266.547 49.0195V48.5508C266.56 48.1602 266.697 47.8411 266.957 47.5938C267.217 47.3333 267.543 47.1966 267.934 47.1836C268.324 47.1966 268.643 47.3333 268.891 47.5938C269.151 47.8542 269.288 48.1797 269.301 48.5703V49.4883C269.301 52.6133 269.424 55.0938 269.672 56.9297C269.685 56.9818 269.691 57.0469 269.691 57.125C269.743 57.5807 269.841 58.1862 269.984 58.9414C270.128 59.6966 270.316 60.2891 270.551 60.7188C270.785 61.1484 271.039 61.3633 271.312 61.3633C271.456 61.3633 271.612 61.3177 271.781 61.2266C272.706 60.6016 273.708 59.5339 274.789 58.0234C275.883 56.5 276.99 54.8659 278.109 53.1211C278.669 52.2357 279.138 51.513 279.516 50.9531C279.646 50.7188 279.861 50.6016 280.16 50.6016C280.499 50.6016 280.733 50.7708 280.863 51.1094C281.15 51.8776 281.775 52.6914 282.738 53.5508C283.507 54.2148 284.392 54.7031 285.395 55.0156C285.837 55.1458 286.286 55.2109 286.742 55.2109C287.328 55.2109 287.927 55.1068 288.539 54.8984C289.581 54.5469 290.635 53.7591 291.703 52.5352C291.859 52.3659 292.061 52.2812 292.309 52.2812C292.478 52.2812 292.641 52.3529 292.797 52.4961C292.966 52.6393 293.051 52.8151 293.051 53.0234C293.051 53.2057 292.992 53.375 292.875 53.5312C291.612 54.9766 290.342 55.9141 289.066 56.3438C288.272 56.6042 287.504 56.7344 286.762 56.7344C286.15 56.7344 285.564 56.6497 285.004 56.4805C283.754 56.1159 282.673 55.5299 281.762 54.7227C281.072 54.1367 280.512 53.5182 280.082 52.8672L279.379 53.9414C278.233 55.7643 277.081 57.4766 275.922 59.0781C274.763 60.6667 273.656 61.819 272.602 62.5352C271.846 62.9779 271.176 63.1992 270.59 63.1992ZM292.348 56.9102C296.905 55.2044 299.835 53.5768 301.137 52.0273C301.54 51.5195 301.742 51.1159 301.742 50.8164C301.742 50.3216 301.391 50.0742 300.688 50.0742C300.076 50.0742 299.346 50.2305 298.5 50.543C297.589 50.8945 296.697 51.3568 295.824 51.9297C294.965 52.4896 294.307 53.1081 293.852 53.7852C293.109 54.931 292.608 55.9727 292.348 56.9102ZM295.746 64.332C294.314 64.332 293.044 64 291.938 63.3359C290.974 62.7109 290.264 61.8841 289.809 60.8555C289.509 60.1523 289.359 59.3776 289.359 58.5312C289.359 56.6432 290.089 54.5599 291.547 52.2812C293.083 50.0417 294.939 48.6875 297.113 48.2188C297.908 48.0495 298.656 47.9648 299.359 47.9648C301.964 47.9648 303.266 48.8958 303.266 50.7578C303.266 53.3099 299.542 55.9271 292.094 58.6094C292.133 59.6771 292.582 60.4909 293.441 61.0508C294.626 61.793 295.596 62.1836 296.352 62.2227C297.12 62.2617 297.595 62.2812 297.777 62.2812C299.952 62.2812 302.335 61.6107 304.926 60.2695C308.155 58.668 311.384 56.0898 314.613 52.5352C314.757 52.3659 314.887 52.2812 315.004 52.2812H315.199C315.382 52.2812 315.551 52.3529 315.707 52.4961C315.863 52.6263 315.948 52.7891 315.961 52.9844C315.961 53.1927 315.896 53.3815 315.766 53.5508C312.393 57.2617 309.008 59.9505 305.609 61.6172C304.477 62.2161 303.077 62.7891 301.41 63.3359C299.743 63.8828 298.428 64.1823 297.465 64.2344C296.514 64.2995 295.941 64.332 295.746 64.332Z" fill="#939580"/>
<g clip-path="url(#clip1_15_38)">
<path d="M322.312 50.2988C321.103 52.0427 321.043 54.5388 322.222 56.3773C323.386 58.2457 325.594 59.292 327.761 59.297C329.949 59.3418 332.112 58.2955 333.481 56.5866C334.819 54.8627 335.429 52.6505 335.254 50.5031C335.084 48.3557 334.11 46.278 332.542 44.7883C330.958 43.3036 328.91 42.4516 326.812 42.1377C325.758 41.9882 324.684 42.0231 323.635 42.1676C322.582 42.322 321.568 42.6608 320.613 43.1043C319.654 43.5577 318.79 44.1755 318.001 44.868C317.222 45.5755 316.572 46.4076 316.013 47.2895C315.968 47.3592 315.988 47.4539 316.058 47.4987C316.128 47.5436 316.218 47.5236 316.263 47.4589L316.268 47.4539C316.847 46.6168 317.497 45.8346 318.271 45.1819C319.055 44.5442 319.899 43.9862 320.828 43.5876C321.757 43.2039 322.721 42.91 323.72 42.7804C324.714 42.6658 325.723 42.6559 326.712 42.8153C328.676 43.1391 330.574 44.0111 331.997 45.3613C333.416 46.7265 334.29 48.6247 334.435 50.5778C334.59 52.526 334 54.5388 332.811 56.0784C331.623 57.598 329.714 58.5596 327.761 58.5397C325.838 58.5397 323.805 57.7076 322.721 56.0684C322.177 55.2613 321.862 54.2997 321.822 53.3132C321.777 52.3267 322.042 51.3302 322.532 50.4533C322.567 50.3885 322.547 50.3088 322.482 50.2739C322.432 50.2241 322.352 50.244 322.312 50.2988Z" fill="#D4B0A5"/>
<path d="M328.141 42.7754C328.151 42.8252 328.206 42.9398 328.296 42.9847C328.396 43.0295 328.371 43.0146 328.411 43.0295L328.556 43.0843L328.84 43.1989C329.03 43.2737 329.22 43.3584 329.405 43.4381C329.779 43.6075 330.149 43.7819 330.509 43.9812C331.238 44.3598 331.927 44.8033 332.602 45.2666C333.935 46.2133 335.134 47.3393 336.093 48.6447C337.042 49.95 337.772 51.4149 338.151 52.9843C338.541 54.5637 338.691 56.193 338.786 57.8421C338.91 59.4863 338.96 61.1903 339.54 62.8395C339.829 63.6566 340.264 64.4338 340.828 65.0965C341.388 65.7641 342.067 66.3122 342.787 66.7755C344.24 67.6873 345.824 68.2902 347.432 68.7685C349.04 69.2368 350.679 69.5756 352.317 69.8696H352.322L352.372 69.4959C351.628 69.3215 350.949 68.7735 350.449 68.1606C349.94 67.5279 349.575 66.7905 349.29 66.0182C348.721 64.4737 348.496 62.7946 348.436 61.1305C348.376 60.2885 348.416 59.4664 348.381 58.6044C348.341 57.7325 348.371 56.8556 348.191 55.9887C348.001 54.2399 347.387 52.5359 346.543 50.9814C345.714 49.402 344.45 48.0916 343.071 47.0055C342.712 46.7514 342.382 46.4474 341.997 46.2332L340.868 45.5556C340.079 45.1819 339.305 44.7684 338.476 44.4943C336.852 43.8616 335.164 43.448 333.466 43.1541L332.187 42.9548L330.903 42.8153L330.264 42.7455C330.024 42.7306 329.774 42.7156 329.525 42.7156C329.01 42.7156 328.556 42.7804 328.141 42.7754ZM328.496 42.8402C328.935 42.9149 329.33 43.0544 329.67 43.1391C329.844 43.179 330.019 43.2039 330.204 43.2288L330.833 43.3285L332.087 43.5327L333.331 43.7968C334.979 44.1705 336.618 44.6089 338.156 45.2766C339.7 45.9193 341.178 46.7215 342.452 47.7727L342.941 48.1514L343.381 48.5849L343.821 49.0183C343.97 49.1578 344.11 49.3073 344.23 49.4717L344.994 50.4333C345.214 50.7771 345.414 51.1359 345.629 51.4796C345.859 51.8184 345.998 52.2071 346.163 52.5807C346.318 52.9594 346.513 53.3231 346.603 53.7267L346.947 54.9075C347.042 55.3061 347.087 55.7196 347.157 56.1232C347.332 56.9304 347.302 57.7674 347.367 58.5945C347.417 59.4315 347.397 60.3184 347.477 61.1753C347.617 62.8993 347.917 64.6431 348.601 66.2773C348.94 67.0944 349.41 67.8667 350.014 68.5244C350.629 69.1721 351.388 69.7301 352.347 69.8547C352.452 69.8696 352.547 69.7949 352.557 69.6902C352.572 69.5906 352.497 69.4959 352.397 69.481H352.392C350.774 69.1322 349.165 68.7286 347.602 68.2155C346.038 67.7122 344.505 67.0894 343.156 66.2026C342.492 65.7492 341.877 65.231 341.373 64.6281C340.868 64.0253 340.484 63.3327 340.224 62.5854C339.7 61.0857 339.655 59.4265 339.54 57.7774C339.43 56.1232 339.265 54.4392 338.845 52.795C338.426 51.1408 337.657 49.5764 336.618 48.2361C335.584 46.8859 334.305 45.7449 332.911 44.8033C332.202 44.3499 331.478 43.9214 330.713 43.5626C330.339 43.3733 329.949 43.2089 329.565 43.0495C329.37 42.9747 329.175 42.895 328.975 42.8252L328.675 42.7206L328.526 42.6708C328.516 42.6708 328.441 42.6359 328.491 42.6658C328.531 42.7057 328.536 42.8103 328.496 42.8402Z" fill="#D4B0A5"/>
<path d="M338.086 45.1769C339.275 45.5905 340.469 46.2182 341.558 46.9357C342.662 47.6482 343.686 48.4703 344.645 49.3621C346.528 51.1857 348.156 53.2833 349.395 55.605C350.019 56.756 350.554 57.9567 350.999 59.1973C351.443 60.4429 351.813 61.7184 352.192 63.0089C352.577 64.2993 352.972 65.6097 353.521 66.8852C354.071 68.1557 354.79 69.4013 355.769 70.4177C356.743 71.4341 357.877 72.291 359.116 72.9188C360.329 73.6014 361.758 74.01 363.182 73.995C364.615 73.995 366.019 73.5217 367.198 72.7444C368.371 71.9522 369.32 70.8163 369.83 69.486C370.349 68.1656 370.349 66.6012 369.685 65.3157C369.365 64.673 368.901 64.11 368.361 63.6566C367.827 63.2131 367.228 62.7896 366.528 62.5903C365.15 62.1369 363.536 62.5106 362.532 63.5719C362.033 64.09 361.693 64.8374 361.788 65.5897C361.873 66.352 362.362 66.9649 362.902 67.4183C362.997 67.498 363.142 67.483 363.221 67.3884C363.301 67.2937 363.286 67.1542 363.196 67.0745L363.187 67.0645C362.707 66.651 362.322 66.1278 362.267 65.5349C362.202 64.947 362.472 64.3541 362.902 63.9157C363.771 63.0238 365.185 62.7099 366.363 63.1235C366.963 63.2978 367.487 63.6815 367.977 64.095C368.461 64.5135 368.861 65.0217 369.131 65.5848C369.69 66.7158 369.675 68.066 369.201 69.2368C368.731 70.4127 367.862 71.4291 366.793 72.1266C365.724 72.8192 364.455 73.2028 363.182 73.1779C361.913 73.163 360.659 72.7843 359.55 72.1216C358.396 71.5038 357.377 70.6867 356.508 69.745C354.76 67.8368 354.021 65.2559 353.311 62.685C352.967 61.3896 352.582 60.0792 352.142 58.7838C351.688 57.4884 351.138 56.2229 350.489 55.0022C349.175 52.5857 347.462 50.3785 345.434 48.5002C343.356 46.6766 341.028 45.1271 338.296 44.3449C338.071 44.2801 337.837 44.4096 337.772 44.6339C337.707 44.8531 337.827 45.0773 338.041 45.152L338.086 45.1769Z" fill="#D4B0A5"/>
<path d="M314.49 53.0541C315.014 50.0796 316.353 47.2048 318.296 44.9079C320.244 42.601 322.831 40.8821 325.688 39.9305C327.117 39.4522 328.596 39.1084 330.104 38.949C330.479 38.8892 330.858 38.8643 331.233 38.8393C331.613 38.8144 331.987 38.7746 332.367 38.7596C333.126 38.7546 333.885 38.7098 334.65 38.7546C337.697 38.8543 340.739 39.2878 343.646 40.1746C346.558 41.0416 349.33 42.342 351.953 43.8965C354.57 45.4709 357.033 47.3144 359.48 49.2127C361.933 51.101 364.39 53.0591 367.178 54.5986C368.571 55.3659 370.05 56.0136 371.608 56.4371C371.993 56.5517 372.397 56.6215 372.787 56.7111C373.182 56.7909 373.586 56.8357 373.986 56.8955C374.385 56.9354 374.785 56.9553 375.185 56.9852L376.393 57.0051C379.635 56.9403 382.832 55.7346 385.3 53.652C387.772 51.5743 389.461 48.5799 389.88 45.3862C390.365 42.1975 389.336 38.7845 387.113 36.4428C384.925 34.0762 381.653 32.731 378.426 33.0399C378.022 33.0598 377.627 33.1694 377.233 33.2392C376.848 33.3587 376.453 33.4534 376.084 33.6178C375.329 33.9068 374.63 34.3253 373.996 34.8136C372.717 35.7951 371.738 37.1453 371.184 38.65C370.909 39.4024 370.749 40.1946 370.679 40.9917C370.624 41.7939 370.704 42.611 370.924 43.3833C371.353 44.9378 372.357 46.3229 373.696 47.2147C375.03 48.1116 376.668 48.56 378.282 48.3507C379.885 48.1215 381.359 47.1549 382.203 45.7848C382.622 45.1022 382.892 44.3249 382.982 43.5278C383.092 42.7306 382.972 41.8985 382.642 41.1611C381.998 39.6764 380.484 38.6251 378.871 38.5354C378.786 38.5304 378.711 38.5952 378.706 38.6749C378.701 38.7596 378.766 38.8294 378.851 38.8393C380.355 38.939 381.738 39.9305 382.318 41.3056C382.612 41.9882 382.712 42.7455 382.607 43.4829C382.512 44.2253 382.258 44.9428 381.858 45.5705C381.059 46.8311 379.69 47.708 378.217 47.9023C376.743 48.0817 375.195 47.6482 373.976 46.8012C372.742 45.9592 371.828 44.6687 371.448 43.2338C371.254 42.5163 371.189 41.769 371.244 41.0316C371.318 40.2892 371.468 39.5518 371.733 38.8543C372.268 37.4642 373.187 36.2186 374.38 35.3218C374.975 34.8734 375.624 34.4947 376.324 34.2356C376.663 34.0812 377.028 34.0064 377.387 33.8968C377.752 33.837 378.117 33.7424 378.486 33.7324C379.96 33.6128 381.493 33.8719 382.867 34.4449C384.246 35.0179 385.489 35.8997 386.488 37.0008C388.521 39.208 389.411 42.327 388.926 45.2567C388.496 48.2012 386.898 50.9316 384.595 52.8199C382.293 54.7082 379.341 55.7695 376.373 55.7944L375.255 55.7645C374.88 55.7296 374.505 55.7097 374.136 55.6698C373.771 55.6051 373.401 55.5652 373.037 55.4905C372.677 55.4008 372.307 55.336 371.953 55.2264C370.519 54.8178 369.146 54.2 367.827 53.4527C365.194 51.953 362.782 50.0248 360.334 48.1315C357.887 46.2232 355.384 44.3299 352.687 42.7007C349.989 41.0764 347.092 39.7312 344.04 38.8643C340.998 37.9674 337.836 37.5439 334.685 37.4692C331.533 37.3845 328.311 37.7681 325.314 38.8742C322.317 39.9604 319.575 41.8437 317.611 44.3598C315.663 46.8759 314.38 49.8654 314.005 53.0142C313.99 53.1487 314.085 53.2683 314.22 53.2833C314.35 53.2982 314.465 53.2085 314.49 53.084V53.0541Z" fill="#D4B0A5"/>
<path d="M319.799 43.2936C320.094 43.1441 320.374 43.0893 320.583 42.9747C320.783 42.8551 321.088 42.6808 321.353 42.5363C321.892 42.2174 322.467 41.9583 323.031 41.6893C324.185 41.201 325.364 40.7625 326.583 40.4785C329.01 39.8707 331.538 39.6565 334.04 39.8209C339.035 40.1547 343.955 41.759 348.261 44.2602C350.409 45.5357 352.377 47.1051 354.235 48.7941C356.103 50.4732 357.897 52.2569 359.835 53.916C361.763 55.5702 363.876 57.0948 366.268 58.1012C368.651 59.1226 371.273 59.5511 373.856 59.5063L373.681 58.5795C372.542 58.9532 371.308 59.2223 370.09 59.3817C368.866 59.5361 367.622 59.6308 366.388 59.5611C365.149 59.5361 363.931 59.3319 362.727 59.0678C362.137 58.8884 361.543 58.729 360.969 58.5197L360.119 58.156C359.84 58.0315 359.545 57.9268 359.285 57.7624L358.486 57.304C358.216 57.1546 357.952 57.0051 357.712 56.8058L356.973 56.2528C356.723 56.0734 356.473 55.889 356.263 55.6648C355.824 55.2314 355.374 54.8228 354.94 54.3694L353.646 52.9793C351.908 51.1458 350.114 49.3472 348.176 47.703C346.238 46.0638 344.14 44.5641 341.803 43.5128C340.649 42.9598 339.43 42.5612 338.206 42.2025C336.972 41.8836 335.729 41.5996 334.475 41.4152C333.221 41.211 331.967 41.0565 330.688 40.9668C329.415 40.907 328.136 40.9519 326.872 41.0964C325.609 41.2409 324.355 41.495 323.131 41.8437C322.522 42.0281 321.912 42.2174 321.323 42.4516C321.023 42.5612 320.733 42.6857 320.439 42.8103C320.294 42.8751 320.149 42.9398 320.004 43.0096L319.789 43.1142L319.679 43.169C319.674 43.174 319.614 43.1989 319.654 43.184C319.704 43.174 319.809 43.2438 319.799 43.2936ZM319.515 43.473C319.544 43.5078 319.679 43.5577 319.759 43.5178L319.839 43.4829L319.944 43.4331L320.154 43.3335L320.583 43.1441C320.873 43.0245 321.163 42.905 321.458 42.8003C322.042 42.5811 322.641 42.3968 323.246 42.2224C324.455 41.8886 325.688 41.6544 326.932 41.5248C328.176 41.3953 329.43 41.3654 330.679 41.4401C331.917 41.5398 333.171 41.7092 334.41 41.9234C335.654 42.1178 336.872 42.4067 338.076 42.7356C339.27 43.0993 340.454 43.4979 341.573 44.0509C343.841 45.0972 345.874 46.582 347.767 48.2162C349.66 49.8554 351.413 51.654 353.126 53.4975L354.395 54.8926C354.825 55.3559 355.304 55.7994 355.759 56.2577C355.979 56.4969 356.238 56.6912 356.498 56.8805L357.267 57.4685C357.517 57.6777 357.797 57.8421 358.076 58.0016L358.916 58.4898C359.19 58.6692 359.495 58.7788 359.79 58.9134L360.679 59.302C361.283 59.5312 361.908 59.7056 362.527 59.8999C363.786 60.1888 365.065 60.418 366.353 60.4579C367.642 60.5426 368.931 60.4579 370.209 60.3084C371.493 60.149 372.742 59.8999 374.006 59.4963H374.011C374.261 59.4116 374.39 59.1425 374.305 58.8934C374.236 58.6941 374.046 58.5696 373.841 58.5746H373.831C371.363 58.6393 368.891 58.2607 366.613 57.314C364.33 56.3823 362.277 54.9324 360.359 53.3281C356.533 50.0846 353.061 46.2581 348.591 43.7071C344.15 41.186 339.17 39.6266 334.065 39.3326C331.518 39.1881 328.945 39.4322 326.478 40.075C325.239 40.3739 324.04 40.8323 322.871 41.3455C322.297 41.6245 321.717 41.8935 321.173 42.2224C320.893 42.3918 320.633 42.5114 320.314 42.7505C319.994 42.9847 319.749 43.2786 319.515 43.473Z" fill="#D4B0A5"/>
<path d="M333.94 48.1664C334.56 49.4717 334.18 51.1408 333.071 52.0377C332.532 52.496 331.837 52.7701 331.138 52.7153C330.444 52.6704 329.774 52.3266 329.34 51.7836C328.9 51.2455 328.695 50.533 328.9 49.8703C329.08 49.2127 329.64 48.6596 330.299 48.5101C330.963 48.3557 331.702 48.6995 332.017 49.3073C332.367 49.8903 332.127 50.7423 331.483 51.0512C331.433 51.0761 331.413 51.1309 331.438 51.1807C331.463 51.2255 331.518 51.2505 331.563 51.2305H331.568C332.317 50.9166 332.677 49.9152 332.272 49.1778C331.912 48.4504 331.038 48.0219 330.234 48.1963C329.435 48.3657 328.785 48.9984 328.556 49.7707C328.301 50.543 328.531 51.4298 329.045 52.0277C329.55 52.6455 330.319 53.0292 331.113 53.074C331.912 53.1338 332.702 52.805 333.286 52.2968C333.885 51.7935 334.3 51.086 334.455 50.3237C334.615 49.5614 334.485 48.7593 334.15 48.0667C334.12 48.0069 334.05 47.987 333.995 48.0119C333.94 48.0418 333.915 48.1116 333.94 48.1664Z" fill="#D4B0A5"/>
<path d="M333.621 45.7499L333.481 45.6004L333.446 45.5606C333.421 45.5656 333.461 45.5855 333.461 45.5955L333.526 45.6752C333.611 45.7848 333.691 45.8944 333.771 46.004C333.925 46.2282 334.075 46.4574 334.215 46.6966C334.49 47.1699 334.73 47.6631 334.934 48.1664C335.339 49.1778 335.589 50.249 335.649 51.3302C335.714 52.4113 335.584 53.4925 335.289 54.5239C334.999 55.5602 334.515 56.5268 333.985 57.4784C332.936 59.3867 331.618 61.1205 330.439 63.0139C330.149 63.4922 329.869 63.9854 329.645 64.5335C329.43 65.0766 329.25 65.6894 329.325 66.377C329.37 66.7158 329.49 67.0496 329.665 67.3435C329.849 67.6325 330.069 67.8816 330.314 68.0859C330.783 68.4845 331.373 68.8034 332.057 68.8831C332.737 68.9678 333.426 68.7585 333.95 68.4247C334.49 68.0959 334.904 67.6574 335.274 67.209C336.003 66.2972 336.523 65.2908 336.972 64.2644C337.412 63.243 337.777 62.1619 337.976 61.0608C338.191 59.9646 338.301 58.8536 338.336 57.7425C338.351 56.6314 338.281 55.5204 338.116 54.4242C337.916 53.3331 337.672 52.2469 337.257 51.2206C336.473 49.1529 335.229 47.2646 333.641 45.7449L333.621 45.7499ZM333.611 45.7599C335.139 47.3393 336.293 49.2525 336.987 51.3102C337.357 52.3316 337.557 53.4078 337.712 54.479C337.832 55.5552 337.862 56.6414 337.802 57.7226C337.647 59.8849 337.212 62.0174 336.253 63.9456C335.789 64.9121 335.249 65.8488 334.575 66.6311C333.91 67.4083 333.031 68.0112 332.192 67.8617C331.778 67.792 331.363 67.5727 330.993 67.2738C330.624 66.9898 330.384 66.651 330.314 66.2424C330.244 65.8289 330.339 65.3456 330.509 64.8723C330.679 64.394 330.923 63.9157 331.178 63.4473C332.237 61.569 333.506 59.7354 334.49 57.7475C334.984 56.7659 335.449 55.7296 335.704 54.6385C335.963 53.5523 336.048 52.4213 335.933 51.3152C335.824 50.2091 335.519 49.128 335.064 48.1215C334.839 47.6183 334.575 47.13 334.275 46.6716C334.125 46.4425 333.97 46.2133 333.801 45.994C333.716 45.8844 333.631 45.7798 333.541 45.6752L333.471 45.5955C333.461 45.5905 333.446 45.5506 333.436 45.5755L333.471 45.6104L333.616 45.7549L333.611 45.7599Z" fill="#D4B0A5"/>
<path d="M317.506 45.1072C319.495 42.4167 322.017 40.1298 324.934 38.5255C327.831 36.8962 331.103 35.9595 334.41 35.7303C336.063 35.6108 337.727 35.6606 339.375 35.83C341.023 36.0094 342.652 36.3531 344.255 36.7916C345.859 37.2201 347.417 37.813 348.95 38.4457C350.469 39.1134 351.972 39.8358 353.416 40.6629C356.333 42.2672 359.06 44.1904 361.693 46.2432C364.355 48.281 367.153 50.1892 370.204 51.6391C373.237 53.074 376.563 54.1352 379.97 53.9609C380.814 53.8911 381.658 53.7666 382.472 53.5274C383.282 53.2833 384.071 52.9594 384.8 52.5309C386.244 51.6889 387.502 50.4782 388.302 49.0084C387.882 49.7308 387.328 50.3686 386.723 50.9366C386.114 51.5046 385.439 51.9978 384.71 52.3914C383.981 52.79 383.202 53.0889 382.402 53.2982C381.598 53.5075 380.774 53.6071 379.95 53.652C376.623 53.7566 373.376 52.6654 370.414 51.2006C367.447 49.7059 364.675 47.8325 362.048 45.7848C359.42 43.7121 356.673 41.7391 353.726 40.1049C352.262 39.2728 350.734 38.5504 349.19 37.8827C347.627 37.25 346.043 36.6571 344.41 36.2286C341.158 35.3467 337.747 34.9232 334.37 35.2371C331.003 35.531 327.691 36.5375 324.779 38.2514C321.877 39.9703 319.38 42.332 317.506 45.1072Z" fill="#D4B0A5"/>
<path d="M352.642 69.6803C352.642 69.5358 352.537 69.4112 352.387 69.3913C352.082 69.3514 344.865 68.3251 343.676 60.3284C342.337 51.3401 341.453 45.4011 329.42 42.5512C329.265 42.5164 329.105 42.611 329.07 42.7655C329.035 42.9199 329.13 43.0794 329.285 43.1142C340.938 45.8745 341.798 51.659 343.101 60.4131C344.355 68.8482 352.237 69.9543 352.312 69.9693C352.472 69.9892 352.617 69.8796 352.637 69.7201C352.642 69.7052 352.642 69.6903 352.642 69.6803Z" fill="#D4B0A5"/>
</g>
<defs>
<clipPath id="clip0_15_38">
<rect width="76" height="41" fill="white" transform="translate(12 23)"/>
</clipPath>
<clipPath id="clip1_15_38">
<rect width="76" height="41" fill="white" transform="matrix(-1 0 0 1 390 33)"/>
</clipPath>
</defs>
</svg>
